<mxfile host="app.diagrams.net" modified="2024-03-23T08:13:15.050Z" agent="Mozilla/5.0 (Windows NT 10.0; Win64; x64) AppleWebKit/537.36 (KHTML, like Gecko) Chrome/122.0.0.0 Safari/537.36" etag="pLMa90Xz6yxeIC04kXPU" version="24.0.8" type="github">
  <diagram name="Page-1" id="gVZToWw1AnqVDJyqYL-W">
    <mxGraphModel dx="661" dy="951" grid="1" gridSize="10" guides="1" tooltips="1" connect="1" arrows="1" fold="1" page="1" pageScale="1" pageWidth="850" pageHeight="1100" math="0" shadow="0">
      <root>
        <mxCell id="0" />
        <mxCell id="1" parent="0" />
        <mxCell id="VTjjWfLEV-m6N4cn2mFx-6" style="edgeStyle=orthogonalEdgeStyle;rounded=0;orthogonalLoop=1;jettySize=auto;html=1;exitX=1;exitY=0.5;exitDx=0;exitDy=0;entryX=1;entryY=0.5;entryDx=0;entryDy=0;strokeWidth=3;" edge="1" parent="1" source="VTjjWfLEV-m6N4cn2mFx-1" target="VTjjWfLEV-m6N4cn2mFx-2">
          <mxGeometry relative="1" as="geometry">
            <Array as="points">
              <mxPoint x="590" y="290" />
              <mxPoint x="590" y="480" />
            </Array>
          </mxGeometry>
        </mxCell>
        <mxCell id="VTjjWfLEV-m6N4cn2mFx-1" value="Agent" style="rounded=1;whiteSpace=wrap;html=1;fontSize=18;fontStyle=1;strokeWidth=3;" vertex="1" parent="1">
          <mxGeometry x="380" y="260" width="120" height="60" as="geometry" />
        </mxCell>
        <mxCell id="VTjjWfLEV-m6N4cn2mFx-4" style="edgeStyle=orthogonalEdgeStyle;rounded=0;orthogonalLoop=1;jettySize=auto;html=1;exitX=0;exitY=0.25;exitDx=0;exitDy=0;flowAnimation=1;strokeWidth=5;" edge="1" parent="1" source="VTjjWfLEV-m6N4cn2mFx-2">
          <mxGeometry relative="1" as="geometry">
            <mxPoint x="280" y="465" as="targetPoint" />
          </mxGeometry>
        </mxCell>
        <mxCell id="VTjjWfLEV-m6N4cn2mFx-5" style="edgeStyle=orthogonalEdgeStyle;rounded=0;orthogonalLoop=1;jettySize=auto;html=1;exitX=0;exitY=0.75;exitDx=0;exitDy=0;flowAnimation=1;strokeWidth=5;" edge="1" parent="1" source="VTjjWfLEV-m6N4cn2mFx-2">
          <mxGeometry relative="1" as="geometry">
            <mxPoint x="280" y="495" as="targetPoint" />
          </mxGeometry>
        </mxCell>
        <mxCell id="VTjjWfLEV-m6N4cn2mFx-8" style="edgeStyle=orthogonalEdgeStyle;rounded=0;orthogonalLoop=1;jettySize=auto;html=1;entryX=0;entryY=0.75;entryDx=0;entryDy=0;strokeWidth=3;" edge="1" parent="1" target="VTjjWfLEV-m6N4cn2mFx-1">
          <mxGeometry relative="1" as="geometry">
            <mxPoint x="370" y="310" as="targetPoint" />
            <mxPoint x="280" y="465" as="sourcePoint" />
            <Array as="points">
              <mxPoint x="230" y="465" />
              <mxPoint x="230" y="305" />
            </Array>
          </mxGeometry>
        </mxCell>
        <mxCell id="VTjjWfLEV-m6N4cn2mFx-9" style="edgeStyle=orthogonalEdgeStyle;rounded=0;orthogonalLoop=1;jettySize=auto;html=1;entryX=0;entryY=0.25;entryDx=0;entryDy=0;strokeWidth=3;" edge="1" parent="1" target="VTjjWfLEV-m6N4cn2mFx-1">
          <mxGeometry relative="1" as="geometry">
            <mxPoint x="280" y="495" as="sourcePoint" />
            <Array as="points">
              <mxPoint x="170" y="495" />
              <mxPoint x="170" y="275" />
            </Array>
          </mxGeometry>
        </mxCell>
        <mxCell id="VTjjWfLEV-m6N4cn2mFx-2" value="Environment" style="rounded=1;whiteSpace=wrap;html=1;fontSize=18;fontStyle=1;strokeWidth=3;" vertex="1" parent="1">
          <mxGeometry x="380" y="450" width="120" height="60" as="geometry" />
        </mxCell>
        <mxCell id="VTjjWfLEV-m6N4cn2mFx-3" value="" style="endArrow=none;html=1;rounded=0;fontSize=12;flowAnimation=1;" edge="1" parent="1">
          <mxGeometry width="50" height="50" relative="1" as="geometry">
            <mxPoint x="280" y="530" as="sourcePoint" />
            <mxPoint x="280" y="440" as="targetPoint" />
          </mxGeometry>
        </mxCell>
        <mxCell id="VTjjWfLEV-m6N4cn2mFx-10" value="&lt;b style=&quot;font-size: 13px;&quot;&gt;r&lt;sub style=&quot;font-size: 13px;&quot;&gt;t+1&lt;/sub&gt;&lt;/b&gt;" style="text;html=1;align=center;verticalAlign=middle;resizable=0;points=[];autosize=1;strokeColor=none;fillColor=none;fontSize=13;" vertex="1" parent="1">
          <mxGeometry x="315" y="428" width="50" height="30" as="geometry" />
        </mxCell>
        <mxCell id="VTjjWfLEV-m6N4cn2mFx-11" value="&lt;b style=&quot;font-size: 13px;&quot;&gt;s&lt;sub style=&quot;font-size: 13px;&quot;&gt;t+1&lt;/sub&gt;&lt;/b&gt;" style="text;html=1;align=center;verticalAlign=middle;resizable=0;points=[];autosize=1;strokeColor=none;fillColor=none;fontSize=13;" vertex="1" parent="1">
          <mxGeometry x="315" y="500" width="50" height="30" as="geometry" />
        </mxCell>
        <mxCell id="VTjjWfLEV-m6N4cn2mFx-12" value="&lt;div style=&quot;font-size: 14px;&quot;&gt;&lt;span style=&quot;font-size: 14px;&quot;&gt;Reward&lt;/span&gt;&lt;/div&gt;&lt;span style=&quot;font-size: 14px;&quot;&gt;r&lt;sub style=&quot;font-size: 14px;&quot;&gt;t&lt;/sub&gt;&lt;/span&gt;" style="text;html=1;align=center;verticalAlign=middle;resizable=0;points=[];autosize=1;strokeColor=none;fillColor=none;fontSize=14;fontStyle=1" vertex="1" parent="1">
          <mxGeometry x="230" y="340" width="70" height="50" as="geometry" />
        </mxCell>
        <mxCell id="VTjjWfLEV-m6N4cn2mFx-13" value="&lt;div style=&quot;font-size: 14px;&quot;&gt;&lt;span style=&quot;font-size: 14px;&quot;&gt;State&lt;/span&gt;&lt;/div&gt;&lt;span style=&quot;font-size: 14px;&quot;&gt;s&lt;sub style=&quot;font-size: 14px;&quot;&gt;t&lt;/sub&gt;&lt;/span&gt;" style="text;html=1;align=center;verticalAlign=middle;resizable=0;points=[];autosize=1;strokeColor=none;fillColor=none;fontSize=14;fontStyle=1" vertex="1" parent="1">
          <mxGeometry x="160" y="340" width="60" height="50" as="geometry" />
        </mxCell>
        <mxCell id="VTjjWfLEV-m6N4cn2mFx-14" value="&lt;div style=&quot;font-size: 14px;&quot;&gt;&lt;span style=&quot;font-size: 14px;&quot;&gt;Action&lt;/span&gt;&lt;/div&gt;&lt;span style=&quot;font-size: 14px;&quot;&gt;a&lt;sub style=&quot;font-size: 14px;&quot;&gt;t&lt;/sub&gt;&lt;/span&gt;" style="text;html=1;align=center;verticalAlign=middle;resizable=0;points=[];autosize=1;strokeColor=none;fillColor=none;fontSize=14;fontStyle=1" vertex="1" parent="1">
          <mxGeometry x="530" y="340" width="60" height="50" as="geometry" />
        </mxCell>
      </root>
    </mxGraphModel>
  </diagram>
</mxfile>
